<?xml version="1.0" encoding="UTF-8" standalone="no"?><!DOCTYPE svg PUBLIC "-//W3C//DTD SVG 1.1//EN" "http://www.w3.org/Graphics/SVG/1.1/DTD/svg11.dtd"><svg width="100%" height="100%" viewBox="0 0 150 39" version="1.1" xmlns="http://www.w3.org/2000/svg" xmlns:xlink="http://www.w3.org/1999/xlink" xml:space="preserve" style="fill-rule:evenodd;clip-rule:evenodd;stroke-linejoin:round;stroke-miterlimit:1.41421;"><g id="Group"><g id="Coreboot"><path d="M72.524,11.908c-0.157,1.669 -0.773,2.97 -1.847,3.905c-1.074,0.935 -2.503,1.402 -4.286,1.402c-1.246,0 -2.344,-0.296 -3.293,-0.886c-0.949,-0.591 -1.681,-1.431 -2.197,-2.519c-0.515,-1.089 -0.784,-2.353 -0.805,-3.792l0,-1.461c0,-1.476 0.261,-2.775 0.784,-3.9c0.523,-1.124 1.273,-1.991 2.25,-2.599c0.978,-0.609 2.108,-0.913 3.39,-0.913c1.725,0 3.115,0.469 4.168,1.407c1.052,0.938 1.665,2.263 1.836,3.974l-2.707,0c-0.129,-1.124 -0.456,-1.935 -0.983,-2.433c-0.526,-0.497 -1.298,-0.746 -2.314,-0.746c-1.182,0 -2.09,0.431 -2.724,1.294c-0.633,0.863 -0.957,2.129 -0.972,3.797l0,1.386c0,1.69 0.303,2.979 0.908,3.867c0.605,0.888 1.491,1.332 2.659,1.332c1.067,0 1.869,-0.239 2.406,-0.719c0.537,-0.48 0.877,-1.279 1.02,-2.396l2.707,0Z" style="fill:#121a19;fill-rule:nonzero;"/><path d="M74.211,11.081c0,-1.139 0.226,-2.164 0.677,-3.078c0.451,-0.913 1.085,-1.614 1.901,-2.105c0.816,-0.491 1.755,-0.736 2.815,-0.736c1.568,0 2.841,0.505 3.818,1.515c0.978,1.01 1.506,2.349 1.585,4.017l0.011,0.613c0,1.145 -0.221,2.17 -0.661,3.072c-0.44,0.902 -1.071,1.6 -1.891,2.095c-0.82,0.494 -1.767,0.741 -2.841,0.741c-1.64,0 -2.952,-0.546 -3.937,-1.638c-0.985,-1.092 -1.477,-2.548 -1.477,-4.367l0,-0.129Zm2.61,0.226c0,1.196 0.247,2.132 0.742,2.809c0.494,0.676 1.181,1.015 2.062,1.015c0.881,0 1.567,-0.344 2.057,-1.031c0.491,-0.688 0.736,-1.694 0.736,-3.019c0,-1.174 -0.252,-2.105 -0.757,-2.793c-0.505,-0.687 -1.191,-1.031 -2.057,-1.031c-0.853,0 -1.529,0.338 -2.031,1.015c-0.501,0.677 -0.752,1.688 -0.752,3.035Z" style="fill:#121a19;fill-rule:nonzero;"/><path d="M93.311,7.762c-0.344,-0.058 -0.699,-0.086 -1.064,-0.086c-1.196,0 -2.002,0.458 -2.417,1.375l0,7.949l-2.61,0l0,-11.623l2.492,0l0.064,1.3c0.631,-1.01 1.504,-1.515 2.621,-1.515c0.373,0 0.681,0.05 0.924,0.151l-0.01,2.449Z" style="fill:#121a19;fill-rule:nonzero;"/><path d="M99.874,17.215c-1.654,0 -2.995,-0.521 -4.023,-1.563c-1.028,-1.042 -1.541,-2.43 -1.541,-4.163l0,-0.322c0,-1.16 0.223,-2.197 0.671,-3.11c0.448,-0.913 1.076,-1.624 1.885,-2.132c0.809,-0.509 1.712,-0.763 2.707,-0.763c1.583,0 2.806,0.505 3.669,1.515c0.863,1.01 1.294,2.438 1.294,4.286l0,1.053l-7.595,0c0.079,0.959 0.4,1.718 0.962,2.277c0.562,0.559 1.269,0.838 2.121,0.838c1.196,0 2.17,-0.484 2.922,-1.45l1.408,1.342c-0.466,0.695 -1.087,1.234 -1.864,1.617c-0.777,0.383 -1.649,0.575 -2.616,0.575Zm-0.311,-9.958c-0.717,0 -1.295,0.25 -1.735,0.752c-0.441,0.501 -0.722,1.199 -0.844,2.095l4.974,0l0,-0.194c-0.057,-0.874 -0.29,-1.534 -0.698,-1.982c-0.408,-0.447 -0.974,-0.671 -1.698,-0.671Z" style="fill:#121a19;fill-rule:nonzero;"/><path d="M116.761,11.307c0,1.804 -0.403,3.24 -1.209,4.307c-0.805,1.067 -1.914,1.601 -3.324,1.601c-1.361,0 -2.421,-0.491 -3.18,-1.472l-0.129,1.257l-2.363,0l0,-16.5l2.61,0l0,5.994c0.752,-0.888 1.765,-1.332 3.04,-1.332c1.418,0 2.532,0.526 3.341,1.579c0.809,1.053 1.214,2.525 1.214,4.415l0,0.151Zm-2.611,-0.226c0,-1.26 -0.222,-2.206 -0.666,-2.836c-0.444,-0.63 -1.088,-0.945 -1.933,-0.945c-1.132,0 -1.927,0.494 -2.385,1.482l0,4.791c0.466,1.01 1.268,1.515 2.406,1.515c0.817,0 1.447,-0.304 1.891,-0.913c0.444,-0.609 0.673,-1.529 0.687,-2.761l0,-0.333Z" style="fill:#121a19;fill-rule:nonzero;"/><path d="M118.458,11.081c0,-1.139 0.226,-2.164 0.677,-3.078c0.451,-0.913 1.085,-1.614 1.901,-2.105c0.817,-0.491 1.755,-0.736 2.815,-0.736c1.568,0 2.841,0.505 3.818,1.515c0.978,1.01 1.506,2.349 1.585,4.017l0.011,0.613c0,1.145 -0.221,2.17 -0.661,3.072c-0.44,0.902 -1.071,1.6 -1.891,2.095c-0.82,0.494 -1.767,0.741 -2.841,0.741c-1.64,0 -2.952,-0.546 -3.937,-1.638c-0.985,-1.092 -1.477,-2.548 -1.477,-4.367l0,-0.129Zm2.61,0.226c0,1.196 0.247,2.132 0.742,2.809c0.494,0.676 1.181,1.015 2.062,1.015c0.881,0 1.567,-0.344 2.057,-1.031c0.491,-0.688 0.736,-1.694 0.736,-3.019c0,-1.174 -0.252,-2.105 -0.757,-2.793c-0.505,-0.687 -1.191,-1.031 -2.057,-1.031c-0.853,0 -1.529,0.338 -2.031,1.015c-0.501,0.677 -0.752,1.688 -0.752,3.035Z" style="fill:#121a19;fill-rule:nonzero;"/><path d="M130.983,11.081c0,-1.139 0.226,-2.164 0.677,-3.078c0.451,-0.913 1.085,-1.614 1.902,-2.105c0.816,-0.491 1.754,-0.736 2.814,-0.736c1.568,0 2.841,0.505 3.819,1.515c0.977,1.01 1.506,2.349 1.584,4.017l0.011,0.613c0,1.145 -0.22,2.17 -0.661,3.072c-0.44,0.902 -1.07,1.6 -1.89,2.095c-0.82,0.494 -1.767,0.741 -2.842,0.741c-1.64,0 -2.952,-0.546 -3.937,-1.638c-0.984,-1.092 -1.477,-2.548 -1.477,-4.367l0,-0.129Zm2.611,0.226c0,1.196 0.247,2.132 0.741,2.809c0.494,0.676 1.182,1.015 2.062,1.015c0.881,0 1.567,-0.344 2.058,-1.031c0.49,-0.688 0.735,-1.694 0.735,-3.019c0,-1.174 -0.252,-2.105 -0.757,-2.793c-0.505,-0.687 -1.19,-1.031 -2.057,-1.031c-0.852,0 -1.529,0.338 -2.03,1.015c-0.502,0.677 -0.752,1.688 -0.752,3.035Z" style="fill:#121a19;fill-rule:nonzero;"/><path d="M147.269,2.552l0,2.825l2.051,0l0,1.934l-2.051,0l0,6.488c0,0.444 0.087,0.764 0.263,0.961c0.175,0.197 0.489,0.296 0.94,0.296c0.3,0 0.605,-0.036 0.913,-0.108l0,2.02c-0.595,0.164 -1.168,0.247 -1.719,0.247c-2.005,0 -3.008,-1.107 -3.008,-3.319l0,-6.585l-1.912,0l0,-1.934l1.912,0l0,-2.825l2.611,0Z" style="fill:#121a19;fill-rule:nonzero;"/></g><g id="Builder"><path d="M60.977,38l0,-15.641l4.619,0c1.675,0 2.947,0.346 3.813,1.037c0.867,0.691 1.3,1.71 1.3,3.056c0,0.809 -0.22,1.513 -0.661,2.111c-0.44,0.598 -1.043,1.026 -1.81,1.284c0.91,0.2 1.642,0.648 2.197,1.342c0.555,0.695 0.833,1.497 0.833,2.407c0,1.382 -0.446,2.461 -1.338,3.238c-0.891,0.777 -2.132,1.166 -3.722,1.166l-5.231,0Zm1.321,-7.52l0,6.403l3.964,0c1.131,0 2.028,-0.288 2.691,-0.865c0.662,-0.576 0.993,-1.377 0.993,-2.401c0,-0.967 -0.317,-1.731 -0.95,-2.293c-0.634,-0.562 -1.51,-0.844 -2.627,-0.844l-4.071,0Zm0,-1.106l3.609,0c1.103,-0.021 1.957,-0.281 2.562,-0.779c0.605,-0.498 0.908,-1.223 0.908,-2.175c0,-1.003 -0.313,-1.742 -0.94,-2.218c-0.627,-0.477 -1.574,-0.715 -2.841,-0.715l-3.298,0l0,5.887Z" style="fill:#121a19;fill-rule:nonzero;"/><path d="M81.634,36.528c-0.774,1.125 -2.009,1.687 -3.706,1.687c-1.239,0 -2.181,-0.36 -2.825,-1.08c-0.645,-0.719 -0.974,-1.785 -0.989,-3.196l0,-7.562l1.279,0l0,7.401c0,2.213 0.895,3.32 2.685,3.32c1.862,0 3.04,-0.77 3.534,-2.31l0,-8.411l1.289,0l0,11.623l-1.246,0l-0.021,-1.472Z" style="fill:#121a19;fill-rule:nonzero;"/><path d="M87.682,38l-1.289,0l0,-11.623l1.289,0l0,11.623Zm-1.515,-14.985c0,-0.244 0.079,-0.45 0.236,-0.618c0.158,-0.168 0.373,-0.252 0.645,-0.252c0.272,0 0.489,0.084 0.65,0.252c0.161,0.168 0.241,0.374 0.241,0.618c0,0.243 -0.08,0.447 -0.241,0.612c-0.161,0.165 -0.378,0.247 -0.65,0.247c-0.272,0 -0.487,-0.082 -0.645,-0.247c-0.157,-0.165 -0.236,-0.369 -0.236,-0.612Z" style="fill:#121a19;fill-rule:nonzero;"/><rect x="91.323" y="21.5" width="1.289" height="16.5" style="fill:#121a19;fill-rule:nonzero;"/><path d="M95.588,32.081c0,-1.805 0.403,-3.242 1.208,-4.313c0.806,-1.071 1.9,-1.606 3.282,-1.606c1.568,0 2.764,0.62 3.588,1.859l0,-6.521l1.278,0l0,16.5l-1.203,0l-0.053,-1.547c-0.824,1.175 -2.034,1.762 -3.631,1.762c-1.34,0 -2.419,-0.539 -3.239,-1.617c-0.82,-1.078 -1.23,-2.533 -1.23,-4.367l0,-0.15Zm1.3,0.226c0,1.482 0.297,2.651 0.891,3.507c0.595,0.856 1.433,1.284 2.514,1.284c1.583,0 2.707,-0.699 3.373,-2.095l0,-5.457c-0.666,-1.511 -1.783,-2.267 -3.352,-2.267c-1.081,0 -1.922,0.425 -2.524,1.273c-0.602,0.849 -0.902,2.1 -0.902,3.755Z" style="fill:#121a19;fill-rule:nonzero;"/><path d="M112.829,38.215c-0.988,0 -1.882,-0.244 -2.68,-0.731c-0.799,-0.487 -1.42,-1.165 -1.864,-2.035c-0.444,-0.87 -0.666,-1.846 -0.666,-2.928l0,-0.461c0,-1.118 0.217,-2.124 0.65,-3.019c0.433,-0.895 1.037,-1.599 1.81,-2.111c0.774,-0.512 1.611,-0.768 2.514,-0.768c1.411,0 2.53,0.482 3.357,1.445c0.827,0.963 1.24,2.279 1.24,3.948l0,0.719l-8.293,0l0,0.247c0,1.318 0.378,2.416 1.134,3.293c0.755,0.877 1.706,1.316 2.852,1.316c0.687,0 1.294,-0.125 1.821,-0.376c0.526,-0.251 1.004,-0.652 1.434,-1.203l0.805,0.612c-0.945,1.368 -2.316,2.052 -4.114,2.052Zm-0.236,-10.957c-0.967,0 -1.782,0.354 -2.444,1.063c-0.663,0.709 -1.065,1.662 -1.209,2.858l6.972,0l0,-0.14c-0.036,-1.117 -0.354,-2.027 -0.956,-2.728c-0.602,-0.702 -1.389,-1.053 -2.363,-1.053Z" style="fill:#121a19;fill-rule:nonzero;"/><path d="M125.064,27.473c-0.272,-0.05 -0.562,-0.076 -0.87,-0.076c-0.802,0 -1.48,0.224 -2.035,0.672c-0.555,0.447 -0.951,1.097 -1.187,1.95l0,7.981l-1.279,0l0,-11.623l1.257,0l0.022,1.848c0.68,-1.375 1.772,-2.063 3.276,-2.063c0.358,0 0.641,0.047 0.849,0.14l-0.033,1.171Z" style="fill:#121a19;fill-rule:nonzero;"/></g><path id="Shape" d="M39.539,14.831c-3.592,-2.134 -4.639,-1.392 -7.864,-3.964c-5.035,-4.013 -11.132,-8.578 -17.118,-9.867c0,0 1.462,1.186 4.171,3.336c0.19,0.158 0.24,0.232 0.202,0.294c-0.057,0.098 -0.315,-0.015 -0.315,-0.015c-2.093,-0.797 -4.457,-1.249 -6.058,-1.145c-0.531,0.034 -0.7,0.12 -0.776,0.271c-0.035,0.071 -0.04,0.262 0.138,0.499c0.7,0.925 2.385,2.738 5.189,4.46c2.883,1.768 7.972,4.276 12.473,6.279c2.015,0.896 3.467,2.093 3.005,3.475c-0.516,1.539 -2.509,1.749 -4.101,1.112c-1.293,-0.517 -2.502,-2.138 -4.465,-4.313c-3.402,-3.77 -5.016,-5.273 -10.661,-4.124c-2.83,0.577 -5.5,2.892 -7.635,5.337c-1.425,1.797 -2.11,3.292 -2.317,5.095c0,0 -0.389,-0.715 -0.003,-2.544c0.676,-3.195 -0.795,-4.567 -0.795,-4.567c-7.446,10.56 3.146,20.106 11.31,10.963c0,0 -2.671,5.933 -2.449,7.78c-1.139,0.373 -1.645,1.421 0.06,2.686c1.863,1.382 6.44,1.262 10.05,-0.289c6.739,-2.897 10.94,-8.295 13.022,-11.723c0.486,-0.801 1.001,-1.191 1.357,-1.318c0.541,-0.195 4.258,0.029 5.999,-0.959c0.242,0.117 0.55,0.181 0.956,0.15c1.262,-0.096 2.03,-1.606 2.03,-1.606c0,0 -1.592,-3.036 -5.405,-5.303Zm-13.973,15.165c-3.453,2.459 -7.198,3.145 -9.512,2.127c3.661,-2.655 10.4,-9.297 10.4,-9.297c0,0 -1.121,-2.825 -3.144,-1.095c-1.956,1.673 -3.763,3.762 -4.477,4.43c-0.442,0.412 -1.192,1.19 -1.635,0.855c-0.538,-0.407 1.066,-4.016 2.293,-7.006c1.673,-4.079 -0.252,-5.353 -2.506,-5.24c-2.02,0.101 -4.779,1.325 -6.756,2.534c-0.56,0.343 -0.942,0.553 -1.083,0.422c-0.124,-0.115 0.007,-0.331 0.374,-0.641c5.255,-4.452 12.753,-4.336 13.423,-1.079c0.534,2.598 -5.016,9.141 -4.652,9.246c0.036,0.01 0.115,-0.03 0.231,-0.11c1.822,-2.384 5.272,-6.045 6.566,-5.904c2.318,0.254 3.118,3.327 3.118,3.327l-7.73,6.975c1.597,0.434 3.343,0.59 5.09,0.456Z"/></g></svg>