<?xml version="1.0" encoding="UTF-8" standalone="no"?>
<svg width="150px" height="39px" viewBox="0 0 150 39" version="1.1" xmlns="http://www.w3.org/2000/svg" xmlns:xlink="http://www.w3.org/1999/xlink">
    <!-- Generator: Sketch 3.8.3 (29802) - http://www.bohemiancoding.com/sketch -->
    <title>Group</title>
    <desc>Created with Sketch.</desc>
    <defs></defs>
    <g id="Material-Design-Stickersheet" stroke="none" stroke-width="1" fill="none" fill-rule="evenodd">
        <g id="Desktop-Copy" transform="translate(-437.000000, -16.000000)">
            <g id="Group" transform="translate(437.000000, 13.000000)">
                <text id="Coreboot" font-family="Roboto-Medium, Roboto" font-size="22" font-weight="400" line-spacing="28" fill="#121A19">
                    <tspan x="59" y="20">Coreboot</tspan>
                </text>
                <text id="Builder" font-family="Roboto-Light, Roboto" font-size="22" font-weight="300" line-spacing="28" fill="#121A19">
                    <tspan x="59" y="41">Builder</tspan>
                </text>
                <g id="Coreboot_full" transform="translate(0.000000, 4.000000)" fill="#000000">
                    <path d="M39.5385283,13.8311321 C35.9466792,11.6966038 34.9003019,12.4386792 31.6752453,9.86739623 C26.6403396,5.85407547 20.5430943,1.2885283 14.556566,0 C14.556566,0 16.0193208,1.18596226 18.7281509,3.33577358 C18.918,3.49369811 18.9675849,3.56807547 18.9302264,3.63022642 C18.8728302,3.72769811 18.6150566,3.61460377 18.6150566,3.61460377 C16.5219623,2.81818868 14.1581887,2.36649057 12.5565283,2.47007547 C12.0263774,2.50403774 11.856566,2.58962264 11.7811698,2.74075472 C11.7458491,2.81173585 11.7407547,3.0029434 11.918717,3.23966038 C12.6186792,4.16513208 14.3042264,5.97837736 17.1084906,7.69958491 C19.9905283,9.46766038 25.0801132,11.9761132 29.5814717,13.9788679 C31.5961132,14.8747925 33.048,16.0723019 32.5857736,17.4538868 C32.0695472,18.9933962 30.0769811,19.2029434 28.4851698,18.5661509 C27.1918868,18.0489057 25.9831698,16.4275472 24.0198113,14.2526038 C20.6181509,10.4834717 19.0039245,8.97996226 13.3590566,10.1292453 C10.5293208,10.7055849 7.85920755,13.0214717 5.72366038,15.4657358 C4.29860377,17.2630189 3.61358491,18.7580377 3.40709434,20.5607547 C3.40709434,20.5607547 3.01788679,19.8458491 3.40437736,18.0169811 C4.07988679,14.8221509 2.60932075,13.4500755 2.60932075,13.4500755 C-4.83690566,24.0096226 5.75456604,33.5564151 13.9190943,24.413434 C13.9190943,24.413434 11.2479623,30.3456226 11.4704151,32.1928302 C10.3309811,32.5664151 9.8249434,33.6144906 11.5301887,34.8792453 C13.3933585,36.2608302 17.9697736,36.141283 21.5796226,34.5898868 C28.319434,31.6932453 32.5198868,26.295283 34.6021132,22.8674717 C35.0884528,22.0659623 35.6029811,21.6760755 35.9592453,21.548717 C36.4995849,21.3537736 40.2170943,21.5779245 41.9576604,20.5896226 C42.1998113,20.7074717 42.5081887,20.7706415 42.9143774,20.7397358 C44.1757358,20.6439623 44.9439623,19.1343396 44.9439623,19.1343396 C44.9439623,19.1343396 43.3521509,16.0977736 39.5385283,13.8311321 L39.5385283,13.8311321 Z M25.5657736,28.9959623 C22.1131698,31.4548302 18.3684906,32.1408679 16.0536226,31.1226792 C19.715434,28.4675094 26.4542264,21.8261887 26.4542264,21.8261887 C26.4542264,21.8261887 25.3327925,19.0012075 23.3103396,20.7309057 C21.3541132,22.4035472 19.5469811,24.4932453 18.8327547,25.1606038 C18.3909057,25.572566 17.6413585,26.3513208 17.1984906,26.0164528 C16.6595094,25.6092453 18.2638868,22.0004151 19.4906038,19.0096981 C21.1642642,14.9308302 19.2386038,13.656566 16.9845283,13.7696604 C14.9647925,13.8712075 12.2056981,15.0952075 10.2290943,16.3039245 C9.66939623,16.6466038 9.28732075,16.8571698 9.14603774,16.7264151 C9.02241509,16.611283 9.15316981,16.3946038 9.52030189,16.0845283 C14.7746038,11.6327547 22.2727925,11.748566 22.9432075,15.0062264 C23.4767547,17.6043396 17.9266415,24.1468302 18.2913962,24.2517736 C18.326717,24.2616226 18.4061887,24.2218868 18.5223396,24.1424151 C20.3440755,21.7579245 23.7936226,18.0967925 25.0875849,18.2384151 C27.4061887,18.4917736 28.2063396,21.5646792 28.2063396,21.5646792 L20.4761887,28.5398491 C22.0727547,28.9735472 23.8187547,29.1301132 25.5657736,28.9959623 L25.5657736,28.9959623 Z" id="Shape"></path>
                </g>
            </g>
        </g>
    </g>
</svg>