<?xml version="1.0" encoding="UTF-8" standalone="no"?>
<!DOCTYPE svg PUBLIC "-//W3C//DTD SVG 1.1//EN" "http://www.w3.org/Graphics/SVG/1.1/DTD/svg11.dtd">
<svg width="100%" height="100%" viewBox="0 0 150 39" version="1.1" xmlns="http://www.w3.org/2000/svg" xmlns:xlink="http://www.w3.org/1999/xlink" xml:space="preserve" style="fill-rule:evenodd;clip-rule:evenodd;stroke-linejoin:round;stroke-miterlimit:1.41421;">
    <g id="Group">
        <g transform="matrix(0.455925,0,0,0.455925,60,1.70422)">
            <path d="M22.847,13.657L20.161,18.352C18.688,16.963 16.712,16.268 14.236,16.268C11.859,16.268 9.98,17.059 8.599,18.641C7.218,20.223 6.527,22.411 6.527,25.206C6.527,30.847 9.214,33.667 14.587,33.667C16.913,33.667 18.964,32.896 20.738,31.357L23.047,36.302C21.223,37.441 19.629,38.159 18.265,38.461C16.9,38.763 15.29,38.913 13.432,38.913C9.282,38.913 6.004,37.704 3.603,35.284C1.201,32.868 0,29.509 0,25.207C0,20.972 1.313,17.55 3.942,14.938C6.57,12.327 10.151,11.022 14.688,11.022C17.817,11.022 20.537,11.9 22.847,13.657Z" style="fill-rule:nonzero;"/>
        </g>
        <g transform="matrix(0.455925,0,0,0.455925,60,1.70422)">
            <path d="M23.947,24.905C23.947,20.804 25.131,17.466 27.499,14.888C29.867,12.31 32.993,11.022 36.876,11.022C40.96,11.022 44.131,12.26 46.392,14.737C48.651,17.215 49.781,20.604 49.781,24.905C49.781,29.19 48.63,32.596 46.329,35.124C44.027,37.651 40.877,38.915 36.876,38.915C32.793,38.915 29.616,37.64 27.349,35.086C25.08,32.534 23.947,29.141 23.947,24.905ZM30.474,24.905C30.474,30.831 32.608,33.794 36.876,33.794C38.834,33.794 40.387,33.023 41.534,31.483C42.68,29.944 43.254,27.751 43.254,24.905C43.254,19.065 41.128,16.143 36.877,16.143C34.919,16.143 33.363,16.913 32.208,18.453C31.052,19.993 30.474,22.144 30.474,24.905Z" style="fill-rule:nonzero;"/>
        </g>
        <g transform="matrix(0.455925,0,0,0.455925,60,1.70422)">
            <path d="M69.315,17.374C68.194,16.638 66.963,16.269 65.625,16.269C64.168,16.269 62.876,16.931 61.746,18.253C60.617,19.574 60.052,21.19 60.052,23.099L60.052,38.413L53.775,38.413L53.775,11.523L60.052,11.523L60.052,13.985C61.809,12.008 64.144,11.022 67.056,11.022C69.198,11.022 70.839,11.348 71.977,12.001L69.315,17.374Z" style="fill-rule:nonzero;"/>
        </g>
        <g transform="matrix(0.455925,0,0,0.455925,60,1.70422)">
            <path d="M96.145,26.89L76.938,26.89C77.055,29.033 77.792,30.698 79.147,31.886C80.502,33.074 82.327,33.668 84.62,33.668C87.482,33.668 89.658,32.923 91.147,31.433L93.583,36.228C91.373,38.02 88.076,38.916 83.691,38.916C79.589,38.916 76.347,37.715 73.962,35.313C71.577,32.912 70.384,29.559 70.384,25.257C70.384,21.023 71.694,17.592 74.313,14.964C76.933,12.335 80.075,11.023 83.741,11.023C87.64,11.023 90.771,12.185 93.132,14.512C95.491,16.839 96.671,19.801 96.671,23.4C96.672,24.169 96.496,25.332 96.145,26.89ZM77.164,22.169L90.371,22.169C89.935,18.236 87.759,16.269 83.843,16.269C80.261,16.269 78.034,18.236 77.164,22.169Z" style="fill-rule:nonzero;"/>
        </g>
        <g transform="matrix(0.455925,0,0,0.455925,60,1.70422)">
            <path d="M104.08,36.931L102.674,38.915L99.135,38.915L99.135,1.507L105.411,0L105.411,12.553C107.084,11.532 108.908,11.023 110.885,11.023C114.817,11.023 117.989,12.265 120.4,14.751C122.811,17.236 124.015,20.422 124.015,24.305C124.015,28.807 122.801,32.367 120.375,34.988C117.947,37.608 114.658,38.917 110.508,38.917C108.014,38.915 105.871,38.254 104.08,36.931ZM105.411,17.927L105.411,31.96C106.331,33.048 107.578,33.593 109.152,33.593C112.18,33.593 114.327,32.873 115.591,31.433C116.855,29.995 117.486,27.693 117.486,24.529C117.486,19.074 114.877,16.345 109.654,16.345C107.796,16.345 106.382,16.871 105.411,17.927Z" style="fill-rule:nonzero;"/>
        </g>
        <g transform="matrix(0.455925,0,0,0.455925,60,1.70422)">
            <path d="M125.725,24.905C125.725,20.804 126.909,17.466 129.278,14.888C131.645,12.311 134.771,11.022 138.654,11.022C142.739,11.022 145.911,12.26 148.171,14.737C150.43,17.215 151.56,20.604 151.56,24.905C151.56,29.19 150.41,32.596 148.109,35.124C145.806,37.651 142.656,38.915 138.655,38.915C134.572,38.915 131.395,37.64 129.128,35.086C126.857,32.534 125.725,29.141 125.725,24.905ZM132.252,24.905C132.252,30.831 134.386,33.794 138.653,33.794C140.612,33.794 142.164,33.023 143.31,31.483C144.456,29.944 145.031,27.751 145.031,24.905C145.031,19.065 142.904,16.143 138.653,16.143C136.695,16.143 135.138,16.913 133.984,18.453C132.829,19.993 132.252,22.144 132.252,24.905Z" style="fill-rule:nonzero;"/>
        </g>
        <g transform="matrix(0.455925,0,0,0.455925,60,1.70422)">
            <path d="M152.766,24.905C152.766,20.804 153.95,17.466 156.319,14.888C158.688,12.31 161.813,11.022 165.696,11.022C169.78,11.022 172.952,12.26 175.212,14.737C177.472,17.215 178.602,20.604 178.602,24.905C178.602,29.19 177.451,32.596 175.15,35.124C172.848,37.651 169.698,38.915 165.697,38.915C161.614,38.915 158.437,37.64 156.17,35.086C153.899,32.534 152.766,29.141 152.766,24.905ZM159.294,24.905C159.294,30.831 161.428,33.794 165.695,33.794C167.654,33.794 169.207,33.023 170.353,31.483C171.499,29.944 172.072,27.751 172.072,24.905C172.072,19.065 169.947,16.143 165.695,16.143C163.738,16.143 162.181,16.913 161.026,18.453C159.871,19.993 159.294,22.144 159.294,24.905Z" style="fill-rule:nonzero;"/>
        </g>
        <g transform="matrix(0.455925,0,0,0.455925,60,1.70377)">
            <path d="M181.49,16.57L178.378,16.57L178.378,11.523L181.49,11.523L181.49,6.051L187.767,3.741L187.767,11.523L195.148,11.523L195.148,16.57L187.767,16.57L187.767,28.344C187.767,30.27 188.068,31.629 188.67,32.424C189.272,33.219 190.327,33.617 191.833,33.617C193.341,33.617 194.745,33.207 196.052,32.387L196.052,38.16C194.595,38.662 192.521,38.914 189.825,38.914C187.147,38.914 185.089,38.156 183.649,36.642C182.209,35.128 181.489,32.973 181.489,30.178L181.489,16.57L181.49,16.57Z" style="fill-rule:nonzero;"/>
        </g>
        <g id="Builder">
            <path d="M60.977,38L60.977,22.359L65.596,22.359C67.271,22.359 68.543,22.705 69.409,23.396C70.276,24.087 70.709,25.106 70.709,26.452C70.709,27.261 70.489,27.965 70.048,28.563C69.608,29.161 69.005,29.589 68.238,29.847C69.148,30.047 69.88,30.495 70.435,31.189C70.99,31.884 71.268,32.686 71.268,33.596C71.268,34.978 70.822,36.057 69.93,36.834C69.039,37.611 67.798,38 66.208,38L60.977,38L60.977,38ZM62.298,30.48L62.298,36.883L66.262,36.883C67.393,36.883 68.29,36.595 68.953,36.018C69.615,35.442 69.946,34.641 69.946,33.617C69.946,32.65 69.629,31.886 68.996,31.324C68.362,30.762 67.486,30.48 66.369,30.48L62.298,30.48L62.298,30.48ZM62.298,29.374L65.907,29.374C67.01,29.353 67.864,29.093 68.469,28.595C69.074,28.097 69.377,27.372 69.377,26.42C69.377,25.417 69.064,24.678 68.437,24.202C67.81,23.725 66.863,23.487 65.596,23.487L62.298,23.487L62.298,29.374Z" style="fill:rgb(18,26,25);fill-rule:nonzero;"/>
            <path d="M81.634,36.528C80.86,37.653 79.625,38.215 77.928,38.215C76.689,38.215 75.747,37.855 75.103,37.135C74.458,36.416 74.129,35.35 74.114,33.939L74.114,26.377L75.393,26.377L75.393,33.778C75.393,35.991 76.288,37.098 78.078,37.098C79.94,37.098 81.118,36.328 81.612,34.788L81.612,26.377L82.901,26.377L82.901,38L81.655,38L81.634,36.528L81.634,36.528Z" style="fill:rgb(18,26,25);fill-rule:nonzero;"/>
            <path d="M87.682,38L86.393,38L86.393,26.377L87.682,26.377L87.682,38ZM86.167,23.015C86.167,22.771 86.246,22.565 86.403,22.397C86.561,22.229 86.776,22.145 87.048,22.145C87.32,22.145 87.537,22.229 87.698,22.397C87.859,22.565 87.939,22.771 87.939,23.015C87.939,23.258 87.859,23.462 87.698,23.627C87.537,23.792 87.32,23.874 87.048,23.874C86.776,23.874 86.561,23.792 86.403,23.627C86.246,23.462 86.167,23.258 86.167,23.015Z" style="fill:rgb(18,26,25);fill-rule:nonzero;"/>
            <rect x="91.323" y="21.5" width="1.289" height="16.5" style="fill:rgb(18,26,25);"/>
            <path d="M95.588,32.081C95.588,30.276 95.991,28.839 96.796,27.768C97.602,26.697 98.696,26.162 100.078,26.162C101.646,26.162 102.842,26.782 103.666,28.021L103.666,21.5L104.944,21.5L104.944,38L103.741,38L103.688,36.453C102.864,37.628 101.654,38.215 100.057,38.215C98.717,38.215 97.638,37.676 96.818,36.598C95.998,35.52 95.588,34.065 95.588,32.231L95.588,32.081L95.588,32.081ZM96.888,32.307C96.888,33.789 97.185,34.958 97.779,35.814C98.374,36.67 99.212,37.098 100.293,37.098C101.876,37.098 103,36.399 103.666,35.003L103.666,29.546C103,28.035 101.883,27.279 100.314,27.279C99.233,27.279 98.392,27.704 97.79,28.552C97.188,29.401 96.888,30.652 96.888,32.307Z" style="fill:rgb(18,26,25);fill-rule:nonzero;"/>
            <path d="M112.829,38.215C111.841,38.215 110.947,37.971 110.149,37.484C109.35,36.997 108.729,36.319 108.285,35.449C107.841,34.579 107.619,33.603 107.619,32.521L107.619,32.06C107.619,30.942 107.836,29.936 108.269,29.041C108.702,28.146 109.306,27.442 110.079,26.93C110.853,26.418 111.69,26.162 112.593,26.162C114.004,26.162 115.123,26.644 115.95,27.607C116.777,28.57 117.19,29.886 117.19,31.555L117.19,32.274L108.897,32.274L108.897,32.521C108.897,33.839 109.275,34.937 110.031,35.814C110.786,36.691 111.737,37.13 112.883,37.13C113.57,37.13 114.177,37.005 114.704,36.754C115.23,36.503 115.708,36.102 116.138,35.551L116.943,36.163C115.998,37.531 114.627,38.215 112.829,38.215ZM112.593,27.258C111.626,27.258 110.811,27.612 110.149,28.321C109.486,29.03 109.084,29.983 108.94,31.179L115.912,31.179L115.912,31.039C115.876,29.922 115.558,29.012 114.956,28.311C114.354,27.609 113.567,27.258 112.593,27.258L112.593,27.258Z" style="fill:rgb(18,26,25);fill-rule:nonzero;"/>
            <path d="M125.064,27.473C124.792,27.423 124.502,27.397 124.194,27.397C123.392,27.397 122.714,27.621 122.159,28.069C121.604,28.516 121.208,29.166 120.972,30.019L120.972,38L119.693,38L119.693,26.377L120.95,26.377L120.972,28.225C121.652,26.85 122.744,26.162 124.248,26.162C124.606,26.162 124.889,26.209 125.097,26.302L125.064,27.473L125.064,27.473Z" style="fill:rgb(18,26,25);fill-rule:nonzero;"/>
        </g>
        <path id="Shape" d="M39.539,14.831C35.947,12.697 34.9,13.439 31.675,10.867C26.64,6.854 20.543,2.289 14.557,1C14.557,1 16.019,2.186 18.728,4.336C18.918,4.494 18.968,4.568 18.93,4.63C18.873,4.728 18.615,4.615 18.615,4.615C16.522,3.818 14.158,3.366 12.557,3.47C12.026,3.504 11.857,3.59 11.781,3.741C11.746,3.812 11.741,4.003 11.919,4.24C12.619,5.165 14.304,6.978 17.108,8.7C19.991,10.468 25.08,12.976 29.581,14.979C31.596,15.875 33.048,17.072 32.586,18.454C32.07,19.993 30.077,20.203 28.485,19.566C27.192,19.049 25.983,17.428 24.02,15.253C20.618,11.483 19.004,9.98 13.359,11.129C10.529,11.706 7.859,14.021 5.724,16.466C4.299,18.263 3.614,19.758 3.407,21.561C3.407,21.561 3.018,20.846 3.404,19.017C4.08,15.822 2.609,14.45 2.609,14.45C-4.837,25.01 5.755,34.556 13.919,25.413C13.919,25.413 11.248,31.346 11.47,33.193C10.331,33.566 9.825,34.614 11.53,35.879C13.393,37.261 17.97,37.141 21.58,35.59C28.319,32.693 32.52,27.295 34.602,23.867C35.088,23.066 35.603,22.676 35.959,22.549C36.5,22.354 40.217,22.578 41.958,21.59C42.2,21.707 42.508,21.771 42.914,21.74C44.176,21.644 44.944,20.134 44.944,20.134C44.944,20.134 43.352,17.098 39.539,14.831L39.539,14.831ZM25.566,29.996C22.113,32.455 18.368,33.141 16.054,32.123C19.715,29.468 26.454,22.826 26.454,22.826C26.454,22.826 25.333,20.001 23.31,21.731C21.354,23.404 19.547,25.493 18.833,26.161C18.391,26.573 17.641,27.351 17.198,27.016C16.66,26.609 18.264,23 19.491,20.01C21.164,15.931 19.239,14.657 16.985,14.77C14.965,14.871 12.206,16.095 10.229,17.304C9.669,17.647 9.287,17.857 9.146,17.726C9.022,17.611 9.153,17.395 9.52,17.085C14.775,12.633 22.273,12.749 22.943,16.006C23.477,18.604 17.927,25.147 18.291,25.252C18.327,25.262 18.406,25.222 18.522,25.142C20.344,22.758 23.794,19.097 25.088,19.238C27.406,19.492 28.206,22.565 28.206,22.565L20.476,29.54C22.073,29.974 23.819,30.13 25.566,29.996L25.566,29.996Z"/>
    </g>
</svg>
